<?xml version="1.0" encoding="UTF-8" standalone="no"?>
<!-- Created with Inkscape (http://www.inkscape.org/) -->

<svg
   xmlns:dc="http://purl.org/dc/elements/1.1/"
   xmlns:cc="http://creativecommons.org/ns#"
   xmlns:rdf="http://www.w3.org/1999/02/22-rdf-syntax-ns#"
   xmlns:svg="http://www.w3.org/2000/svg"
   xmlns="http://www.w3.org/2000/svg"
   xmlns:sodipodi="http://sodipodi.sourceforge.net/DTD/sodipodi-0.dtd"
   xmlns:inkscape="http://www.inkscape.org/namespaces/inkscape"
   width="2400"
   height="600"
   viewBox="0 0 2400 600"
   version="1.1"
   id="SVGRoot"
   inkscape:version="0.92.2 (5c3e80d, 2017-08-06)"
   sodipodi:docname="NWD1.svg">
  <sodipodi:namedview
     id="base"
     pagecolor="#ffffff"
     bordercolor="#666666"
     borderopacity="1.0"
     inkscape:pageopacity="0.0"
     inkscape:pageshadow="2"
     inkscape:zoom="0.64"
     inkscape:cx="1023.1026"
     inkscape:cy="300"
     inkscape:document-units="px"
     inkscape:current-layer="layer1"
     showgrid="false"
     inkscape:window-width="1920"
     inkscape:window-height="1012"
     inkscape:window-x="-8"
     inkscape:window-y="-8"
     inkscape:window-maximized="1" />
  <defs
     id="defs3801" />
  <metadata
     id="metadata3804">
    <rdf:RDF>
      <cc:Work
         rdf:about="">
        <dc:format>image/svg+xml</dc:format>
        <dc:type
           rdf:resource="http://purl.org/dc/dcmitype/StillImage" />
        <dc:title></dc:title>
      </cc:Work>
    </rdf:RDF>
  </metadata>
  <g
     inkscape:groupmode="layer"
     id="layer2"
     inkscape:label="Layer 2"
     style="display:inline">
    <path
       id="path3828"
       style="fill:#008000;fill-opacity:1"
       d="m 381.89648,11.60937 c -20.14542,11.20676 -17.8679,5.95874 -24.27343,16.90625 -1.43585,2.10815 -2.71015,4.3284 -4.13672,6.44336 -1.6205,2.22901 -3.35099,4.37872 -4.84766,6.69922 -1.71368,2.30785 -3.45527,4.57355 -4.83984,7.10547 -1.67991,2.58829 -3.3206,5.19633 -5.12305,7.70508 -1.94108,2.84725 -3.8272,5.73112 -5.73633,8.59961 -1.31429,2.04669 -2.38359,4.2318 -3.77929,6.2207 -1.21397,1.91971 -2.88365,3.4773 -4.13086,5.37891 -1.60999,2.09401 -3.28169,4.09388 -5.21289,5.91211 -2.05835,2.27423 -4.18981,4.47576 -6.51563,6.48047 -2.10581,1.68143 -4.1494,3.43206 -6.26953,5.0957 -2.44507,2.15131 -4.61678,4.61836 -7.32617,6.45703 -3.58485,2.56595 -7.0545,5.29487 -10.64063,7.86133 -2.86447,2.24314 -5.75377,4.49626 -8.04101,7.35351 -1.83774,2.13955 -3.54857,4.38145 -5.56836,6.36133 -2.00219,2.2955 -4.13157,4.47957 -6.15039,6.76172 -3.49804,3.72572 -6.58355,7.80231 -9.80664,11.76367 -4.674,6.00331 -9.31983,12.03418 -13.61328,18.31836 -4.06659,5.73447 -8.15425,11.45371 -12.15821,17.23242 -2.96049,4.07571 -5.69552,8.3213 -8.20703,12.6875 -2.81396,4.91832 -5.85068,9.6947 -8.86328,14.49219 -4.1942,6.8651 -8.10993,13.8878 -11.12695,21.36719 -4.2292,9.68805 -8.23295,19.4629 -12.19336,29.26367 -4.91214,12.04735 -9.12314,24.35915 -14.06641,36.39453 -7.49782,18.4779 -14.99363,36.96025 -23.18359,55.14649 -11.13252,24.86578 -22.56224,49.60221 -33.98828,74.33401 -10.70348,23.3334 -20.77207,46.9843 -32.89258,69.6367 -9.35924,17.7568 -19.22387,35.4629 -32.77344,50.4336 -6.515698,7.2289 -13.079666,14.5038 -20.929687,20.2617 -2.221219,1.017 -4.344111,1.8978 -5.910156,2.3516 l -18.320313,14.2324 c 14.569795,-4.938 27.452716,-13.8412 40.607422,-21.5508 9.931134,-6.322 17.556884,-15.3008 25.285154,-24.0176 13.17521,-15.1674 22.81551,-32.9352 31.98633,-50.6933 12.05816,-22.6194 21.90034,-46.3061 32.54102,-69.6016 11.41507,-24.81039 22.89709,-49.59026 34.21093,-74.44726 8.30418,-18.29652 15.93579,-36.88301 23.63672,-55.4375 5.03994,-12.08215 9.34399,-24.4455 14.3711,-36.5332 3.93761,-9.83164 8.06698,-19.56963 12.32031,-29.26758 2.95508,-7.51086 7.28938,-14.28861 11.42187,-21.16797 3.11513,-4.7999 6.22376,-9.60351 8.97071,-14.62695 2.55318,-4.27969 5.33185,-8.39308 8.27148,-12.41406 3.84403,-5.85389 8.00936,-11.48304 12.02735,-17.21485 4.28362,-6.27339 8.96144,-12.26646 13.68164,-18.21875 3.2478,-3.99334 6.45305,-7.97876 10.08984,-11.625 2.00101,-2.3793 4.19807,-4.53406 6.16992,-6.9375 2.19052,-1.80295 3.62007,-4.25171 5.58984,-6.27539 2.20912,-2.61634 5.29086,-4.91233 8.10743,-6.90234 3.67618,-2.45262 6.94144,-5.46919 10.72461,-7.75 2.47597,-2.19547 4.54827,-4.80763 7.33007,-6.63477 2.00985,-1.81397 4.17168,-3.4145 6.24024,-5.17578 2.28296,-2.07863 4.1298,-4.61764 6.41797,-6.68359 1.95022,-1.9254 3.66462,-3.9842 5.08984,-6.33008 1.7764,-1.48251 2.71742,-3.59758 4.16992,-5.31836 1.06585,-2.19246 2.24326,-4.29127 3.7168,-6.25391 1.82939,-2.89279 3.67049,-5.7919 5.69141,-8.55859 1.75876,-2.60325 3.56907,-5.1479 5.13086,-7.87695 1.36501,-2.49133 3.19973,-4.6219 4.89648,-6.89649 0.35448,-0.67582 0.77537,-1.30217 1.2207,-1.9082 2.22432,2.18997 4.46451,4.36172 6.64453,6.59961 3.27781,3.33041 6.10449,7.06271 9.16602,10.58789 3.04156,3.3287 5.94225,6.77731 9.07812,10.01953 3.71083,3.61602 7.39072,7.27114 11.25977,10.71875 2.87709,2.80493 5.87438,5.47356 8.82813,8.19531 1.92448,2.05805 4.20594,3.73424 6.4082,5.48047 3.48181,2.98004 7.18858,5.68457 10.79492,8.51367 3.39195,2.62923 7.11179,4.80181 10.76172,7.05078 3.71252,2.63738 7.47875,5.16596 11.25391,7.71094 4.94062,2.92315 9.75534,6.03925 14.58203,9.14649 5.1501,3.10873 10.12929,6.47956 15.14453,9.79882 5.33245,3.68509 10.47199,7.63764 15.78906,11.34571 4.86883,3.75304 9.806,7.42107 14.86523,10.91406 3.02763,2.23465 6.04751,4.51876 8.77735,7.11523 2.41939,2.47597 4.51263,5.24155 6.67383,7.94141 3.18149,3.59625 6.25855,7.23737 8.97461,11.20312 4.03734,5.67663 8.1883,11.2709 12.17578,16.98438 4.00631,5.60061 8.04925,11.17318 12.10742,16.73633 3.45531,4.82098 6.77246,9.74013 9.95898,14.74219 3.64208,5.87907 7.997,11.27542 11.88086,16.98437 3.80149,5.26122 7.37896,10.68228 10.8418,16.17188 4.44019,6.66537 9.04024,13.22461 13.44336,19.91406 4.83117,7.18574 9.99004,14.1441 14.77539,21.36133 4.12462,7.04874 8.77207,13.7517 13.13477,20.64648 5.17789,7.32821 9.91164,14.94625 14.63476,22.57422 4.73943,7.38811 9.44514,14.79396 13.74219,22.45117 3.57655,7.24888 7.64044,14.23684 11.33398,21.42383 3.77374,7.31069 7.47936,14.65004 11.33985,21.91794 2.77345,5.4306 5.66754,10.7969 8.44531,16.2227 2.16927,3.5043 3.69723,7.3725 5.86914,10.8652 1.54169,2.8715 3.36695,5.5476 5.16016,8.2637 2.24933,3.1369 4.3297,6.3878 6.46679,9.6016 2.23667,3.575 4.43228,7.1664 6.58789,10.791 2.14151,2.9849 4.10001,6.0998 5.98828,9.25 1.81278,2.9243 3.75587,5.7611 5.75,8.5644 1.81039,3.2882 4.28378,6.0955 6.58985,9.0274 2.74952,3.5477 5.56454,7.0411 8.33008,10.5761 2.14558,2.374 4.23587,4.8113 6.51953,7.0547 2.21954,2.248 4.24521,4.6703 6.25586,7.1035 2.50729,2.8055 5.13689,5.4909 7.79687,8.1504 2.71273,2.1161 5.17299,4.5202 7.64258,6.9082 3.65033,3.4688 7.25243,6.9925 10.94531,10.4161 2.2413,2.0991 4.87116,3.7239 7.19336,5.7207 2.23317,1.8696 4.50862,3.6806 6.75977,5.5293 2.11986,1.6745 3.8425,3.7766 6.00195,5.3945 9.26533,4.0681 20.69383,-5.3895 24.98633,-14.1113 1.94725,-2.6671 3.40837,-5.7121 4.4707,-8.834 0.60237,-1.3556 1.2977,-2.649 2.02735,-3.9239 1.96438,-0.6502 3.8963,-1.4072 5.85351,-2.082 3.698,-1.4437 7.39119,-2.8436 11.18945,-4.0039 4.82423,-1.3568 9.37569,-3.47 14.0918,-5.1445 4.65603,-1.7833 9.19176,-3.8302 13.64453,-6.0684 4.16845,-2.0692 8.48034,-3.8353 12.67969,-5.834 4.71772,-2.3983 9.42052,-4.7845 14.25391,-6.9453 6.14245,-2.9424 12.37285,-5.6967 18.52343,-8.6211 6.07025,-3.0762 11.98713,-6.4998 17.85157,-9.9824 12.35855,-6.7809 24.42285,-14.0289 36.35935,-21.5059 5.8176,-3.7593 11.1105,-8.2217 16.3242,-12.7636 5.878,-5.0067 11.6178,-10.1979 17.0625,-15.6758 4.837,-4.6455 9.029,-9.8542 13.0879,-15.1719 2.9387,-4.1134 5.8665,-8.2383 8.4864,-12.5722 2.2868,-4.37889 5.0805,-8.46776 7.4609,-12.78326 2.6271,-4.33945 4.1048,-9.14471 5.7988,-13.875 1.1746,-3.37246 1.6674,-6.90351 2.5176,-10.35937 0.8786,-3.08359 0.6706,-6.33138 1.3242,-9.43945 0.7384,-3.10711 1.0558,-6.28207 1.2403,-9.4629 -0.1916,-3.07961 0.5709,-5.82659 1.7187,-8.625 1.0254,-3.0094 1.2085,-6.1891 2.4805,-9.12304 0.8593,-3.41462 1.9474,-6.6494 3.3066,-9.89063 0.8941,-3.59508 2.5742,-6.83852 4.1563,-10.1582 1.6274,-3.66727 3.3014,-7.34328 5.2988,-10.83008 2.0498,-3.4722 3.4772,-7.25537 5.4609,-10.7539 2.2197,-3.48784 4.5085,-7.05896 7.545,-9.90039 2.6166,-2.80836 5.291,-5.56044 7.9824,-8.29688 1.7809,-1.82691 4.1078,-2.92344 6.1015,-4.45703 1.74,-1.54433 0.8547,-0.83331 2.6504,-2.14649 2.7105,-2.13034 5.4477,-4.26553 8.3789,-6.08789 1.8779,-0.90156 3.5307,-2.17328 5.2793,-3.2832 0.5892,-0.37396 2.4101,-1.41105 1.8067,-1.06055 -0.5924,0.34411 -0.8952,0.51376 -1.461,0.8418 -1.3052,0.76289 -2.6119,1.52365 -3.9179,2.28516 0.1697,-0.10963 0.3451,-0.21346 0.5156,-0.32227 -4.8454,2.79714 -8.4902,4.89234 -10.8867,6.25781 4.5119,-4.02857 10.029,-6.43237 15.4297,-9.02734 2.9384,-1.72488 5.937,-3.38987 8.9355,-5.06641 -2.5191,1.46543 -5.0368,2.93339 -7.5527,4.4043 2.0176,-0.99329 4.0028,-2.03955 5.8965,-3.23437 1.3589,-0.85745 1.6847,-1.07265 1.9921,-1.2754 0.3504,-0.2035 0.5458,-0.31326 1.7344,-1.02539 0.1997,-0.11962 0.2616,-0.1677 0.5918,-0.37109 3.7298,-2.1155 7.4183,-4.29569 10.9219,-6.71484 4.4196,-3.05154 -0.6647,-0.0906 4.3027,-2.82422 0.7895,-0.53604 1.5741,-1.07676 2.3672,-1.60742 0.4535,-0.30349 0.9126,-0.59846 1.3672,-0.90039 1.0628,-0.64314 2.0839,-1.28299 3.1289,-1.92774 0.061,-0.0352 0.6675,-0.39175 0.5,-0.29492 -0.1583,0.0916 -0.2133,0.12469 -0.3691,0.21484 2.903,-1.79285 5.6915,-3.55199 7.7597,-4.97656 4.5782,-2.99439 9.3627,-5.65046 13.9004,-8.70508 2.5917,-2.27934 5.726,-3.73633 8.6055,-5.56836 0.7441,-0.47343 1.4322,-1.02823 2.1484,-1.54297 0.8198,-0.51515 1.6392,-1.03172 2.459,-1.54687 5.856,-3.58992 11.5717,-7.39337 17.3164,-11.16602 6.2976,-4.33175 12.1686,-9.2385 18.2676,-13.83398 4.7876,-3.65881 9.162,-7.81455 13.6152,-11.86719 3.1714,-2.78555 6.0105,-5.95084 8.4004,-9.42969 2.5643,-2.169 3.7577,-5.3592 5.8965,-7.83789 1.5805,-2.76815 3.2883,-5.38779 5.3281,-7.85156 1.8927,-3.24632 4.018,-6.32678 6.1231,-9.4414 2.3884,-3.96479 4.6045,-8.05431 7.3789,-11.76563 2.3354,-3.24348 4.0375,-6.85626 6.168,-10.22266 0.9016,-2.24709 2.5964,-4.00628 3.8886,-6 0.7565,-1.16717 1.356,-2.42854 2.0586,-3.6289 2.0043,-3.3306 3.1709,-7.05245 5.0449,-10.43946 1.549,-3.35799 3.1035,-6.72452 4.1973,-10.26367 1.3459,-3.85633 2.7705,-7.70199 3.875,-11.63672 0.2135,-0.95029 0.3809,-1.90684 0.5313,-2.86523 3.3427,4.5989 6.6942,9.18674 9.998,13.81445 5.0834,7.26538 10.8688,14.00595 16.5234,20.82617 6.272,7.37739 12.4132,14.86356 18.6954,22.23243 3.6275,4.92486 7.8031,9.41381 11.5097,14.27539 2.9158,4.06098 5.8675,8.09089 8.8438,12.10742 1.8165,2.82428 3.912,5.45571 5.7988,8.23047 2.5319,4.2244 5.4235,8.21157 8.1348,12.31836 3.3596,5.31684 7.1768,10.32022 10.7265,15.50586 4.5451,6.54057 9.414,12.85038 14.3887,19.06836 6.8376,8.5862 14.1362,16.79312 20.8184,25.50195 8.6072,10.67666 17.5584,21.07105 26.2363,31.69336 9.5126,11.95361 18.8741,24.02875 28.1367,36.17773 9.4411,12.23684 18.0993,25.0417 27.0996,37.59766 7.7673,11.14435 16.0698,21.90852 23.4785,33.29883 6.1151,9.40514 11.8768,19.02729 17.6875,28.62105 5.005,7.8525 9.7412,15.8616 14.5352,23.8418 4.3707,7.4352 9.0448,14.6891 13.8301,21.8633 4.9163,6.9133 9.2103,14.1871 13.5429,21.4688 3.3699,5.7545 6.7664,11.5006 10.5157,17.0176 3.3799,5.4015 6.9692,10.6867 10.6582,15.8828 2.8658,4.2218 5.4008,8.6683 8.3886,12.8105 2.5403,3.2088 5.0441,6.4373 7.7481,9.5117 2.0289,2.7474 4.029,5.5209 6.0293,8.295 1.8547,2.6221 4.1429,4.818 6.666,6.7753 2.5113,1.7859 4.8651,3.7804 7.3184,5.6426 2.3431,2.0997 5.0844,3.6338 7.6152,5.4805 2.3042,1.1444 4.3686,2.5542 6.4785,4.0078 4.7563,2.3842 9.9441,3.7847 15.0313,5.2813 4.675,1.2692 9.3625,2.4647 13.9687,3.9746 4.0417,1.6377 7.9951,3.4769 11.9082,5.4004 4.646,2.1664 9.2658,4.3901 13.9531,6.4667 9.4543,3.7706 19.307,6.4156 29.1426,8.9766 1.6904,0.3863 3.3819,0.7719 5.0723,1.1582 l 18.6718,-12.9726 c -1.7013,-0.3404 -3.4022,-0.6812 -5.1035,-1.0215 -9.6404,-2.4705 -19.3197,-4.9859 -28.4726,-8.9649 -4.6715,-2.1157 -9.4224,-4.0556 -14.0489,-6.2754 -3.9474,-2.0387 -7.8703,-4.0791 -11.9746,-5.7832 -4.6545,-1.494 -9.3271,-2.8641 -14.0937,-3.9589 -4.8817,-1.4579 -9.8351,-2.7351 -14.4785,-4.8809 -1.0921,-0.6227 -1.8889,-1.4414 -2.9082,-2.1543 -1.2381,-0.8659 -1.065,-0.5122 -2.3809,-1.1074 -0.3959,-0.1791 -0.7654,-0.4101 -1.1484,-0.6153 -2.5636,-1.7961 -5.2457,-3.3999 -7.6407,-5.4199 -2.4773,-1.7853 -4.6912,-3.9233 -7.2246,-5.623 -2.3326,-1.8586 -4.6984,-3.6413 -6.3613,-6.1953 -2.0373,-2.8436 -4.1264,-5.647 -6.1953,-8.4629 -2.6634,-3.0166 -5.1219,-6.1898 -7.6445,-9.3223 -3.0263,-4.1077 -5.6288,-8.5034 -8.5098,-12.707 -3.6814,-5.1792 -7.2362,-10.4699 -10.623,-15.8457 -3.707,-5.4936 -7.1484,-11.1634 -10.5274,-16.8633 -4.3937,-7.2868 -8.7476,-14.567 -13.6816,-21.5098 -4.7331,-7.1686 -9.3698,-14.4014 -13.7285,-21.8047 -4.8104,-7.9742 -9.6696,-15.9149 -14.6797,-23.7656 -5.8279,-9.61484 -11.6521,-19.23252 -17.8321,-28.62695 -7.4734,-11.39411 -15.8347,-22.16224 -23.6855,-33.29492 -9.0597,-12.53667 -17.685,-25.39041 -27.1426,-37.64063 -9.2394,-12.19587 -18.6563,-24.25519 -28.168,-36.23828 -8.5724,-10.66867 -17.4309,-21.09722 -26.0273,-31.74414 -6.6598,-8.72942 -13.8323,-17.0482 -20.6543,-25.64844 -4.883,-6.20953 -9.6894,-12.49022 -14.1504,-19.01172 -3.496,-5.20175 -7.361,-10.15505 -10.6738,-15.48437 -2.6577,-4.15459 -5.5666,-8.14719 -7.9981,-12.44727 -1.8982,-2.81491 -4.0218,-5.47 -5.9101,-8.29101 -3.0185,-3.99832 -6.0274,-7.99699 -8.9453,-12.07031 -3.7277,-4.91913 -7.9458,-9.43628 -11.7071,-14.32813 -6.3991,-7.25292 -12.5776,-14.69617 -18.8144,-22.08789 -5.5383,-6.83299 -11.2615,-13.54491 -16.2051,-20.83203 -3.7325,-5.2725 -7.5962,-10.44102 -11.3477,-15.70117 -3.0647,-4.0435 -6.2358,-7.99402 -9.2988,-12.03321 -0.1503,-0.15069 -0.8558,-0.85415 -1.4277,-1.42773 -0.3728,0.26178 -1.6747,0.8741 -3.6055,1.80078 0.1197,-0.52202 0.2475,-1.04344 0.4004,-1.5625 1.5279,-0.245 2.5182,-0.40602 3.0059,-0.4375 -1.221,-1.21555 -2.5948,-2.5268 -2.8594,-2.39648 -20.6038,10.14817 -18.4969,4.18027 -21.1309,12.89453 -0.6114,3.03539 -0.907,6.09512 -1.3476,9.15625 -0.6866,3.45792 -1.5631,6.87606 -1.9766,10.38476 -0.5618,3.33498 -0.756,6.73581 -1.7129,9.99414 -1.2017,3.8721 -2.4991,7.71729 -3.8789,11.5293 -1.2843,3.39616 -2.7467,6.73003 -4.373,9.97656 -1.6445,3.45533 -3.0469,7.02912 -5.0703,10.29688 -1.9473,3.24486 -4.23,6.27391 -5.9922,9.63281 -1.9488,3.41129 -3.8835,6.81996 -6.1582,10.0332 -2.5742,3.86971 -4.8891,7.89946 -7.4043,11.80665 -2.1449,3.06459 -3.9769,6.32309 -6.2168,9.3164 -1.9254,2.5542 -3.4679,5.33285 -5.3457,7.91602 -1.8057,2.73378 -3.6944,5.35591 -5.8399,7.83984 -2.5692,3.24598 -5.3561,6.2927 -8.5156,8.98047 -4.4127,4.00452 -8.7454,8.11239 -13.5625,11.63867 -5.9956,4.67909 -11.9512,9.42815 -18.2773,13.66016 -5.7681,3.79884 -11.5854,7.52005 -17.4395,11.18359 -4.4248,2.882 -8.9731,5.56525 -13.2344,8.69336 -4.5991,2.93581 -9.3357,5.65586 -13.8496,8.72656 -0.8268,0.55488 -3.3518,2.14589 -2.4805,1.66407 5.7964,-3.20511 22.9352,-13.25906 17.2637,-9.8379 -9.8362,5.9334 -20.0813,11.1482 -29.6191,17.55665 -2.6859,1.74536 -6.6159,4.30616 -9.3223,6.12695 -0.3994,0.22774 -0.7998,0.45377 -1.1992,0.68164 -7.8469,4.35875 -15.5642,8.94384 -23.1387,13.75781 -2.8233,2.02383 -5.6366,4.05677 -8.3476,6.23047 -2.8738,2.28054 -6.0478,4.19376 -8.5762,6.89063 -2.684,2.74483 -5.3379,5.51698 -7.9629,8.31835 -2.7828,3.23249 -5.2843,6.75927 -7.3164,10.51172 -1.7489,3.60184 -3.5014,7.2019 -5.4434,10.70508 -1.8658,3.59151 -3.6316,7.23695 -5.2617,10.94141 -1.6214,3.34455 -2.9524,6.76976 -4.1347,10.29101 -1.3367,3.26485 -2.109,6.672 -3.2793,9.99414 -0.9006,3.02192 -1.3628,6.16207 -2.5235,9.10352 -1.0448,2.98897 -1.3793,6.07319 -1.4023,9.23242 -0.243,3.11631 -0.698,6.19912 -1.3379,9.25977 -0.3953,3.10515 -0.5426,6.25174 -1.3906,9.28515 -0.8062,3.38928 -1.2867,6.86247 -2.5508,10.13086 -1.5591,4.67172 -3.3568,9.23418 -5.9375,13.457 -2.5339,4.226 -5.0345,8.4699 -7.5235,12.7227 -2.6939,4.2016 -5.4984,8.3223 -8.4824,12.3242 -4.04,5.2435 -8.3535,10.26 -13.1347,14.8496 -5.5261,5.3623 -11.1901,10.5891 -17.1036,15.5235 -5.2624,4.4814 -10.6508,8.8281 -16.5371,12.4765 -2.9745,1.8735 -7.66464,4.7089 -11.16598,6.8281 1.19505,-0.6801 0.94557,-0.5415 2.33203,-1.33 0.99022,-0.5632 -0.92953,0.5663 -2.88282,1.6894 -0.12651,0.072 -0.21374,0.1194 -0.33984,0.1914 -0.10991,0.063 -0.18458,0.1041 -0.29297,0.166 0.3533,-0.2141 0.77673,-0.4705 1.1836,-0.7168 -1.93999,1.1042 -2.31732,1.3237 -3.78516,2.1602 0.23707,-0.1 1.37772,-0.7426 2.56641,-1.4219 -11.18208,6.3883 -17.82287,10.1154 -2.56836,1.4219 -0.0865,0.035 -0.05,0 0.16015,-0.1445 -6.10707,2.9653 -12.34855,5.6315 -18.43554,8.6386 -4.8139,2.124 -9.55719,4.3348 -14.22461,6.7364 -4.07243,2.31 -8.54839,3.8607 -12.74805,5.9199 -4.41231,2.2616 -8.87352,4.358 -13.4375,6.2852 -4.70245,1.6582 -9.28072,3.5486 -13.96094,5.25 -3.87576,0.9671 -7.59936,2.311 -11.29101,3.791 -3.64647,1.5736 0.29465,-0.033 -3.63477,1.2675 -2.01316,0.6666 -3.82633,1.9011 -5.98437,2.1133 -0.84037,0.2225 -1.65388,0.5643 -2.51172,0.7051 -1.90731,0.3131 -3.93061,0.049 -5.78321,0.7617 -9.04337,5.2634 -19.71034,8.4416 -25.38086,17.4649 -0.28446,0.4628 -0.55121,0.9369 -0.81836,1.4101 -1.47622,-1.2254 -2.93216,-2.4755 -4.46679,-3.6328 -2.2445,-2.1128 -4.94554,-3.6498 -7.25,-5.6953 -3.78194,-3.2719 -7.38969,-6.7643 -10.94922,-10.2734 -2.39525,-2.4505 -4.73214,-5.0237 -7.5625,-6.9844 -2.67138,-2.5265 -5.20415,-5.1996 -7.68359,-7.9141 -2.04742,-2.525 -4.11296,-5.035 -6.36329,-7.3847 -2.29416,-2.0754 -4.21856,-4.5395 -6.41406,-6.7188 -2.78398,-3.5195 -5.62488,-6.9867 -8.34765,-10.5547 -2.26002,-2.9214 -4.66774,-5.7344 -6.46094,-8.9863 -1.96127,-2.7548 -3.92279,-5.5038 -5.67578,-8.3984 -1.89273,-3.1429 -3.83557,-6.2676 -6.03711,-9.2051 -2.16159,-3.666 -4.36752,-7.2941 -6.64063,-10.8926 -2.11603,-3.2248 -4.15993,-6.4965 -6.41601,-9.627 -1.77849,-2.7096 -3.5605,-5.3957 -5.13672,-8.2304 -2.19796,-3.3901 -3.678,-7.2268 -5.85352,-10.6426 -2.8354,-5.4049 -5.83053,-10.7264 -8.63281,-16.15235 -3.91295,-7.22681 -7.57085,-14.56858 -11.33203,-21.87305 -3.69496,-7.21903 -7.79646,-14.22314 -11.39844,-21.49218 -4.33718,-7.67323 -9.08698,-15.08491 -13.82812,-22.51172 -4.74126,-7.62435 -9.45994,-15.2602 -14.60157,-22.6211 -4.38304,-6.89934 -8.98779,-13.64596 -13.16211,-20.67968 -4.76884,-7.22588 -9.99476,-14.13679 -14.80273,-21.33594 -4.36241,-6.69505 -8.90683,-13.26868 -13.28125,-19.95703 -3.4618,-5.52233 -7.0669,-10.96064 -10.90625,-16.22852 -3.8551,-5.70112 -8.25127,-11.04438 -11.80078,-16.95898 -3.23675,-5.02976 -6.50403,-10.04149 -10.0332,-14.87305 -4.09555,-5.51638 -8.18404,-11.03501 -12.16016,-16.63867 -3.98271,-5.69501 -8.09017,-11.30371 -12.02734,-17.0293 -2.69063,-4.04672 -5.8194,-7.72438 -8.98633,-11.40234 -2.19841,-2.79516 -4.35153,-5.63227 -6.80078,-8.21485 -2.77692,-2.75429 -5.96892,-5.06919 -9.08985,-7.41406 -5.15751,-3.34969 -10.12252,-7.00628 -14.95703,-10.80469 -5.3272,-3.70877 -10.47101,-7.67057 -15.76367,-11.42773 -5.03095,-3.32182 -9.99077,-6.73004 -15.17578,-9.81055 -4.79207,-3.09603 -9.49717,-6.31186 -14.4668,-9.12304 -3.72324,-2.67629 -7.65602,-5.03529 -11.28516,-7.85547 -3.59965,-2.1851 -7.23091,-4.33944 -10.64257,-6.80274 -3.5892,-2.82674 -7.32838,-5.48866 -10.70313,-8.5625 -2.17091,-1.72251 -4.39119,-3.39241 -6.33984,-5.35547 -3.04043,-2.65224 -6.01458,-5.37886 -8.94922,-8.15039 -3.87772,-3.34165 -7.44271,-7.03695 -11.15234,-10.5625 -3.10554,-3.21273 -5.92575,-6.67692 -8.97852,-9.93945 -3.1036,-3.54281 -5.97364,-7.29149 -9.26562,-10.66406 -2.85749,-2.99093 -5.78957,-5.88207 -8.68946,-8.82617 -1.99846,-2.00982 -4.12525,-3.99965 -6.96094,-4.68165 z m 921.36332,30.44141 c 0.084,0.0833 0.1194,0.11919 0.1992,0.19922 0.2274,-0.15969 0.1806,-0.22373 -0.1992,-0.19922 z M 1118.9434,250.5 c -1.5354,0.90127 -3.0541,1.81946 -4.543,2.76953 1.1739,-0.6777 2.0842,-1.19868 3.4023,-1.96289 0.8348,-0.48788 1.6712,-0.97294 2.5059,-1.46094 -0.4525,0.22268 -0.9103,0.43568 -1.3652,0.6543 z M 382.53906,14.75391 c 0.0573,0.001 0.0639,0.0203 -0.01,0.0644 -0.64474,0.38761 -1.2945,0.76644 -1.94141,1.15039 0.26866,-0.38495 0.57123,-0.71838 0.9375,-0.93164 0.22209,-0.12932 0.8419,-0.28679 1.01367,-0.28321 z M 829.13672,540.3867 c 0.0681,0.037 -0.33054,0.5568 -0.50391,0.7305 -0.27832,0.2787 -0.83043,0.407 -1.18945,0.5176 -0.0958,-0.047 -0.18061,-0.109 -0.27344,-0.1602 0.6358,-0.3568 1.26744,-0.7208 1.90625,-1.0723 0.0307,-0.017 0.0508,-0.021 0.0605,-0.016 z"
       inkscape:connector-curvature="0" />
  </g>
  <g
     id="layer1"
     inkscape:groupmode="layer"
     inkscape:label="Layer 1"
     style="display:inline">
    <text
       xml:space="preserve"
       style="font-style:normal;font-weight:normal;font-size:320.20953369px;line-height:1.25;font-family:sans-serif;letter-spacing:0px;word-spacing:0px;fill:#000000;fill-opacity:1;stroke:none;stroke-width:8.00523758"
       x="1.0771002"
       y="318.30365"
       id="text3819"
       transform="scale(0.70040076,1.427754)"><tspan
         sodipodi:role="line"
         id="tspan3817"
         x="1.0771002"
         y="318.30365"
         style="stroke-width:8.00523758">Natural Web Desigins</tspan></text>
    <text
       xml:space="preserve"
       style="font-style:normal;font-weight:normal;font-size:40px;line-height:1.25;font-family:sans-serif;letter-spacing:0px;word-spacing:0px;fill:#000000;fill-opacity:1;stroke:none"
       x="1895.3125"
       y="260.9375"
       id="text3956"><tspan
         sodipodi:role="line"
         id="tspan3954"
         x="1895.3125"
         y="297.43073" /></text>
  </g>
</svg>
